<svg width="25" height="24" viewBox="0 0 25 24" fill="none" xmlns="http://www.w3.org/2000/svg">
<g clip-path="url(#clip0)">
<path d="M21.2505 12.5696H18.9012C18.5815 12.5696 18.2719 12.6133 17.9773 12.6936C17.3961 11.5512 16.2096 10.7662 14.8424 10.7662H10.6898C9.32258 10.7662 8.13608 11.5512 7.55493 12.6936C7.26032 12.6133 6.95075 12.5696 6.63102 12.5696H4.28174C2.34322 12.5696 0.766113 14.1467 0.766113 16.0852V19.8408C0.766113 21.0039 1.71238 21.9501 2.87549 21.9501H22.6567C23.8198 21.9501 24.7661 21.0039 24.7661 19.8408V16.0852C24.7661 14.1467 23.189 12.5696 21.2505 12.5696ZM7.17416 14.282V20.5439H2.87549C2.48779 20.5439 2.17236 20.2285 2.17236 19.8408V16.0853C2.17236 14.9222 3.11863 13.9759 4.28174 13.9759H6.63102C6.82189 13.9759 7.00672 14.0018 7.18269 14.0496C7.17763 14.1265 7.17416 14.2039 7.17416 14.282ZM16.9518 20.5439H8.58041V14.2819C8.58041 13.1188 9.52668 12.1725 10.6898 12.1725H14.8424C16.0056 12.1725 16.9518 13.1188 16.9518 14.2819V20.5439ZM23.3599 19.8408C23.3599 20.2285 23.0444 20.5439 22.6567 20.5439H18.3581V14.2819C18.3581 14.2038 18.3546 14.1264 18.3495 14.0495C18.5255 14.0018 18.7103 13.9759 18.9012 13.9759H21.2505C22.4136 13.9759 23.3599 14.9221 23.3599 16.0852V19.8408Z" fill="#1E2538"/>
<path d="M5.45655 5.92984C3.73394 5.92984 2.33252 7.33126 2.33252 9.05387C2.33247 10.7765 3.73394 12.1779 5.45655 12.1779C7.17911 12.1779 8.58058 10.7765 8.58058 9.05387C8.58058 7.33126 7.17916 5.92984 5.45655 5.92984ZM5.4565 10.7717C4.5093 10.7717 3.73872 10.0011 3.73872 9.05387C3.73872 8.10667 4.5093 7.33609 5.4565 7.33609C6.40371 7.33609 7.17428 8.10667 7.17428 9.05387C7.17429 10.0011 6.40371 10.7717 5.4565 10.7717Z" fill="#1E2538"/>
<path d="M12.7664 2.0498C10.4651 2.0498 8.59277 3.92209 8.59277 6.22346C8.59277 8.52484 10.4651 10.3971 12.7664 10.3971C15.0678 10.3971 16.9401 8.52484 16.9401 6.22346C16.9401 3.92213 15.0678 2.0498 12.7664 2.0498ZM12.7664 8.99087C11.2405 8.99087 9.99902 7.74943 9.99902 6.22346C9.99902 4.69754 11.2405 3.45605 12.7664 3.45605C14.2924 3.45605 15.5338 4.69749 15.5338 6.22346C15.5338 7.74943 14.2924 8.99087 12.7664 8.99087Z" fill="#1E2538"/>
<path d="M20.0757 5.92984C18.3531 5.92984 16.9517 7.33126 16.9517 9.05387C16.9517 10.7765 18.3531 12.1779 20.0757 12.1779C21.7983 12.1779 23.1997 10.7765 23.1997 9.05387C23.1997 7.33126 21.7983 5.92984 20.0757 5.92984ZM20.0757 10.7717C19.1285 10.7717 18.3579 10.0011 18.3579 9.05387C18.358 8.10667 19.1285 7.33609 20.0757 7.33609C21.0229 7.33609 21.7935 8.10667 21.7935 9.05387C21.7935 10.0011 21.0229 10.7717 20.0757 10.7717Z" fill="#1E2538"/>
</g>
<defs>
<clipPath id="clip0">
<rect width="24" height="24" fill="white" transform="translate(0.766113)"/>
</clipPath>
</defs>
</svg>
