<svg width="42" height="43" viewBox="0 0 42 43" fill="none" xmlns="http://www.w3.org/2000/svg">
<rect width="42" height="42" transform="translate(0 0.375)" fill="#FD7B38"/>
<g clip-path="url(#clip0)">
<path d="M29.7946 17.0292C29.5203 16.7543 29.0751 16.7539 28.8002 17.0282L21.4972 24.3161C21.223 24.5902 20.777 24.5902 20.5023 24.3155L13.1998 17.0282C12.9249 16.7539 12.4798 16.7543 12.2054 17.0292C11.9311 17.3041 11.9316 17.7493 12.2064 18.0236L19.5084 25.3104C19.9198 25.7217 20.46 25.9273 21.0002 25.9273C21.5401 25.9273 22.0802 25.7218 22.491 25.3109L29.7936 18.0236C30.0684 17.7493 30.0689 17.3041 29.7946 17.0292Z" fill="white"/>
</g>
<defs>
<clipPath id="clip0">
<rect width="18" height="18" fill="white" transform="translate(12 12.375)"/>
</clipPath>
</defs>
</svg>
