<svg width="23" height="22" viewBox="0 0 23 22" fill="none" xmlns="http://www.w3.org/2000/svg">
<path fill-rule="evenodd" clip-rule="evenodd" d="M1.62777 14.6669C3.17677 19.0529 7.34477 21.9999 11.9998 21.9999C18.0648 21.9999 22.9998 17.0649 22.9998 10.9999C22.9998 4.93494 18.0648 -6.10352e-05 11.9998 -6.10352e-05C7.34477 -6.10352e-05 3.17677 2.94694 1.62877 7.33394C1.53677 7.59494 1.67377 7.87994 1.93377 7.97194C2.19377 8.06194 2.47977 7.92694 2.57177 7.66694C3.97877 3.67894 7.76777 0.999939 11.9998 0.999939C17.5138 0.999939 21.9998 5.48594 21.9998 10.9999C21.9998 16.5139 17.5138 20.9999 11.9998 20.9999C7.76777 20.9999 3.97877 18.3209 2.57077 14.3339C2.47877 14.0739 2.19377 13.9389 1.93277 14.0289C1.67277 14.1209 1.53577 14.4059 1.62777 14.6669ZM11.5002 15.5C11.3722 15.5 11.2443 15.451 11.1462 15.354C10.9513 15.159 10.9513 14.842 11.1462 14.647L14.2933 11.5H0.5C0.224 11.5 0 11.276 0 11C0 10.724 0.224 10.5 0.5 10.5H14.2932L11.1473 7.35401C10.9523 7.15901 10.9523 6.84201 11.1473 6.64701C11.3423 6.45201 11.6593 6.45201 11.8542 6.64701L15.8542 10.647C16.0492 10.842 16.0492 11.159 15.8542 11.354L11.8542 15.354C11.7563 15.451 11.6283 15.5 11.5002 15.5Z" fill="#1E2538"/>
</svg>
